# Blender v2.92.0 OBJ File: 'arrow.blend'
# www.blender.org
mtllib arrow.mtl
o Cube_Cube.001
v -0.052331 3.688038 0.051365
v -0.082939 -2.505409 0.081407
v -0.052331 3.688038 -0.051365
v -0.082939 -2.505409 -0.081407
v 0.052331 3.688038 0.051365
v 0.082939 -2.505409 0.081407
v 0.052331 3.688038 -0.051365
v 0.082939 -2.505409 -0.081407
v 0.069610 -3.136617 -0.069610
v -0.069610 -3.136617 -0.069610
v -0.069610 -3.136617 0.069610
v 0.069610 -3.136617 0.069610
v -0.174892 -3.263064 0.174892
v -0.174892 -3.263064 -0.174892
v 0.174892 -3.263064 0.174892
v 0.174892 -3.263064 -0.174892
v 0.174892 -3.567004 -0.174892
v -0.174892 -3.567004 -0.174892
v -0.174892 -3.567004 0.174892
v 0.174892 -3.567004 0.174892
v -0.068803 3.688038 0.000000
v -0.109044 -2.505409 0.000000
v 0.068803 3.688038 0.000000
v 0.109044 -2.505409 0.000000
v 0.091520 -3.136617 0.000000
v -0.091520 -3.136617 0.000000
v 0.000000 3.688038 -0.061017
v 0.000000 -2.505409 -0.096705
v 0.000000 3.688038 0.061017
v 0.000000 -2.505409 0.096705
v 0.000000 -3.136617 0.082691
v 0.000000 -3.136617 -0.082691
v 0.000000 -3.136617 0.000000
v -0.135772 3.906045 0.101929
v -0.135772 3.906045 -0.101929
v 0.135772 3.906045 0.101929
v 0.135772 3.906045 -0.101929
v -0.178508 3.906045 0.000000
v 0.178508 3.906045 0.000000
v 0.000000 3.906045 -0.121082
v 0.000000 3.906045 0.121082
v 0.000000 4.426089 0.000000
vt 0.375000 0.125000
vt 0.375000 0.250000
vt 0.625000 0.250000
vt 0.625000 0.125000
vt 0.375000 0.375000
vt 0.375000 0.500000
vt 0.625000 0.500000
vt 0.625000 0.375000
vt 0.375000 0.625000
vt 0.375000 0.750000
vt 0.625000 0.750000
vt 0.625000 0.625000
vt 0.375000 0.875000
vt 0.375000 1.000000
vt 0.625000 1.000000
vt 0.625000 0.875000
vt 0.625000 0.125000
vt 0.625000 0.000000
vt 0.625000 0.000000
vt 0.625000 0.875000
vt 0.625000 0.750000
vt 0.750000 0.625000
vt 0.750000 0.750000
vt 0.875000 0.750000
vt 0.875000 0.625000
vt 0.625000 0.375000
vt 0.625000 0.250000
vt 0.625000 0.625000
vt 0.625000 0.500000
vt 0.750000 0.500000
vt 0.875000 0.500000
vt 0.375000 0.000000
vt 0.625000 1.000000
vt 0.375000 0.250000
vt 0.375000 0.375000
vt 0.375000 0.000000
vt 0.375000 0.125000
vt 0.375000 0.500000
vt 0.375000 0.625000
vt 0.375000 0.875000
vt 0.375000 1.000000
vt 0.375000 0.750000
vt 0.375000 0.875000
vt 0.375000 0.625000
vt 0.375000 0.750000
vt 0.375000 0.250000
vt 0.375000 0.375000
vt 0.375000 0.125000
vt 0.375000 0.500000
vt 0.375000 0.000000
vt 0.625000 0.250000
vt 0.625000 0.250000
vt 0.625000 0.500000
vt 0.625000 0.500000
vt 0.625000 0.000000
vt 0.625000 0.000000
vt 0.625000 0.750000
vt 0.625000 0.750000
vn -0.9731 -0.2303 0.0000
vn -0.6091 -0.2066 -0.7657
vn -0.6334 -0.0104 -0.7737
vn -0.9999 -0.0104 0.0000
vn 0.0000 -0.1371 -0.9905
vn 0.6091 -0.2066 -0.7657
vn 0.6891 -0.0106 -0.7246
vn 0.0000 -0.0083 -0.9999
vn 0.9731 -0.2303 0.0000
vn 0.6091 -0.2066 0.7657
vn 0.6891 -0.0106 0.7246
vn 0.9999 -0.0104 0.0000
vn 0.0000 -0.1371 0.9905
vn -0.6091 -0.2066 0.7657
vn -0.6334 -0.0104 0.7737
vn 0.0000 -0.0083 0.9999
vn -0.7548 -0.6559 0.0000
vn 0.0366 -0.4697 0.8820
vn 0.0000 -0.6759 0.7370
vn 0.8690 -0.4946 0.0167
vn 0.0000 -1.0000 0.0000
vn 0.0000 -0.6759 -0.7370
vn 0.0366 -0.4697 -0.8820
vn 0.7548 -0.6559 0.0000
vn 0.8690 -0.4946 -0.0167
vn -0.6414 -0.0450 -0.7658
vn 0.0000 -0.0229 -0.9997
vn -0.6414 -0.0450 0.7658
vn -0.9983 -0.0578 0.0000
vn 0.6414 -0.0450 -0.7658
vn 0.9983 -0.0578 0.0000
vn 0.0000 -0.0229 0.9997
vn 0.6414 -0.0450 0.7658
vn 0.0000 1.0000 0.0000
vn 0.7064 0.0011 -0.7078
vn 0.7064 -0.0011 0.7078
vn 0.7064 0.0011 0.7078
vn 0.7064 -0.0011 -0.7078
usemtl Material
s 1
f 21/1/1 3/2/2 4/3/3 22/4/4
f 27/5/5 7/6/6 8/7/7 28/8/8
f 23/9/9 5/10/10 6/11/11 24/12/12
f 29/13/13 1/14/14 2/15/15 30/16/16
f 22/4/4 26/17/17 11/18/18 2/19/15
f 30/16/16 31/20/19 12/21/20 6/11/11
f 33/22/21 31/23/19 11/24/18 26/25/17
f 28/8/8 32/26/22 10/27/23 4/3/3
f 24/12/12 25/28/24 9/29/25 8/7/7
f 6/11/11 12/21/20 25/28/24 24/12/12
f 32/30/22 33/22/21 26/25/17 10/31/23
f 4/3/3 10/27/23 26/17/17 22/4/4
f 7/6/6 23/9/9 24/12/12 8/7/7
f 1/32/14 21/1/1 22/4/4 2/19/15
f 9/29/25 25/28/24 33/22/21 32/30/22
f 8/7/7 9/29/25 32/26/22 28/8/8
f 25/28/24 12/21/20 31/23/19 33/22/21
f 2/15/15 11/33/18 31/20/19 30/16/16
f 5/10/10 29/13/13 30/16/16 6/11/11
f 3/2/2 27/5/5 28/8/8 4/3/3
usemtl Material.001
f 3/2/2 35/34/26 40/35/27 27/5/5
f 1/32/14 34/36/28 38/37/29 21/1/1
f 7/6/6 37/38/30 39/39/31 23/9/9
f 29/13/13 41/40/32 34/41/28 1/14/14
f 23/9/9 39/39/31 36/42/33 5/10/10
f 27/5/5 40/35/27 37/38/30 7/6/6
f 21/1/1 38/37/29 35/34/26 3/2/2
f 5/10/10 36/42/33 41/40/32 29/13/13
f 41/40/32 42/43/34 34/41/28
f 39/39/31 42/44/34 36/42/33
f 36/42/33 42/45/34 41/40/32
f 35/34/26 42/46/34 40/35/27
f 40/35/27 42/47/34 37/38/30
f 38/37/29 42/48/34 35/34/26
f 37/38/30 42/49/34 39/39/31
f 34/36/28 42/50/34 38/37/29
usemtl Material.002
f 10/27/23 18/51/35 14/52/35 4/3/3
f 9/29/25 17/53/36 16/54/36 8/7/7
f 2/19/15 13/55/37 19/56/37 11/18/18
f 6/11/11 15/57/38 20/58/38 12/21/20
