# Blender v2.82 (sub 7) OBJ File: 'arrow.blend'
# www.blender.org
mtllib arrow.mtl
o Cube_Cube.001
v -0.082939 3.604656 0.081407
v -0.082939 -2.505409 0.081407
v -0.082939 3.604656 -0.081407
v -0.082939 -2.505409 -0.081407
v 0.082939 3.604656 0.081407
v 0.082939 -2.505409 0.081407
v 0.082939 3.604656 -0.081407
v 0.082939 -2.505409 -0.081407
v 0.110323 -3.445698 -0.110323
v -0.110323 -3.445698 -0.110323
v -0.110323 -3.445698 0.110323
v 0.110323 -3.445698 0.110323
v -0.337932 -3.336294 0.337932
v -0.337932 -3.336294 -0.337932
v 0.337932 -3.336294 0.337932
v 0.337932 -3.336294 -0.337932
v 0.337932 -3.923578 -0.337932
v -0.337932 -3.923578 -0.337932
v -0.337932 -3.923578 0.337932
v 0.337932 -3.923578 0.337932
v -0.109044 3.604656 0.000000
v -0.109044 -2.505409 0.000000
v 0.109044 3.604656 0.000000
v 0.109044 -2.505409 0.000000
v 0.145048 -3.445698 0.000000
v -0.145048 -3.445698 0.000000
v 0.000000 3.604656 -0.096705
v 0.000000 -2.505409 -0.096705
v 0.000000 3.604656 0.096705
v 0.000000 -2.505409 0.096705
v 0.000000 -3.445698 0.131055
v 0.000000 -3.445698 -0.131055
v 0.000000 -3.445698 0.000000
v -0.207750 3.906045 0.155964
v -0.207750 3.906045 -0.155964
v 0.207750 3.906045 0.155964
v 0.207750 3.906045 -0.155964
v -0.273140 3.906045 0.000000
v 0.273140 3.906045 0.000000
v 0.000000 3.906045 -0.185272
v 0.000000 3.906045 0.185272
v 0.000000 4.700767 0.000000
vt 0.375000 0.125000
vt 0.375000 0.250000
vt 0.625000 0.250000
vt 0.625000 0.125000
vt 0.375000 0.375000
vt 0.375000 0.500000
vt 0.625000 0.500000
vt 0.625000 0.375000
vt 0.375000 0.625000
vt 0.375000 0.750000
vt 0.625000 0.750000
vt 0.625000 0.625000
vt 0.375000 0.875000
vt 0.375000 1.000000
vt 0.625000 1.000000
vt 0.625000 0.875000
vt 0.625000 0.125000
vt 0.625000 0.000000
vt 0.625000 0.000000
vt 0.625000 0.875000
vt 0.625000 0.750000
vt 0.750000 0.625000
vt 0.750000 0.750000
vt 0.875000 0.750000
vt 0.875000 0.625000
vt 0.625000 0.375000
vt 0.625000 0.250000
vt 0.625000 0.625000
vt 0.625000 0.500000
vt 0.750000 0.500000
vt 0.875000 0.500000
vt 0.375000 0.000000
vt 0.625000 1.000000
vt 0.375000 0.250000
vt 0.375000 0.375000
vt 0.375000 0.000000
vt 0.375000 0.125000
vt 0.375000 0.500000
vt 0.375000 0.625000
vt 0.375000 0.875000
vt 0.375000 1.000000
vt 0.375000 0.750000
vt 0.375000 0.875000
vt 0.375000 0.625000
vt 0.375000 0.750000
vt 0.375000 0.250000
vt 0.375000 0.375000
vt 0.375000 0.125000
vt 0.375000 0.500000
vt 0.375000 0.000000
vt 0.625000 0.250000
vt 0.625000 0.250000
vt 0.625000 0.500000
vt 0.625000 0.500000
vt 0.625000 0.000000
vt 0.625000 0.000000
vt 0.625000 0.750000
vt 0.625000 0.750000
vn -0.9682 -0.2501 0.0000
vn -0.6048 -0.2243 -0.7642
vn -0.6091 0.0211 -0.7928
vn -0.9998 0.0193 0.0000
vn 0.0000 -0.1491 -0.9888
vn 0.6048 -0.2243 -0.7642
vn 0.7104 0.0212 -0.7034
vn 0.0000 0.0182 -0.9998
vn 0.9682 -0.2501 0.0000
vn 0.6048 -0.2243 0.7642
vn 0.7104 0.0212 0.7034
vn 0.9998 0.0193 0.0000
vn 0.0000 -0.1491 0.9888
vn -0.6048 -0.2243 0.7642
vn -0.6091 0.0211 0.7928
vn 0.0000 0.0182 0.9998
vn -0.7757 -0.6311 0.0000
vn 0.0169 -0.4540 0.8908
vn 0.0000 -0.6542 0.7563
vn 0.8781 -0.4769 0.0385
vn 0.0000 -1.0000 0.0000
vn 0.0000 -0.6542 -0.7563
vn 0.0169 -0.4540 -0.8908
vn 0.7757 -0.6311 0.0000
vn 0.8781 -0.4769 -0.0385
vn -0.6420 -0.0572 -0.7645
vn 0.0000 -0.0314 -0.9995
vn -0.6420 -0.0572 0.7645
vn -0.9974 -0.0716 0.0000
vn 0.6420 -0.0572 -0.7645
vn 0.9974 -0.0716 0.0000
vn 0.0000 -0.0314 0.9995
vn 0.6420 -0.0572 0.7645
vn 0.0000 1.0000 0.0000
vn 0.7073 0.0007 -0.7069
vn 0.7073 -0.0007 0.7069
vn 0.7073 0.0007 0.7069
vn 0.7073 -0.0007 -0.7069
usemtl Material
s 1
f 21/1/1 3/2/2 4/3/3 22/4/4
f 27/5/5 7/6/6 8/7/7 28/8/8
f 23/9/9 5/10/10 6/11/11 24/12/12
f 29/13/13 1/14/14 2/15/15 30/16/16
f 22/4/4 26/17/17 11/18/18 2/19/15
f 30/16/16 31/20/19 12/21/20 6/11/11
f 33/22/21 31/23/19 11/24/18 26/25/17
f 28/8/8 32/26/22 10/27/23 4/3/3
f 24/12/12 25/28/24 9/29/25 8/7/7
f 6/11/11 12/21/20 25/28/24 24/12/12
f 32/30/22 33/22/21 26/25/17 10/31/23
f 4/3/3 10/27/23 26/17/17 22/4/4
f 7/6/6 23/9/9 24/12/12 8/7/7
f 1/32/14 21/1/1 22/4/4 2/19/15
f 9/29/25 25/28/24 33/22/21 32/30/22
f 8/7/7 9/29/25 32/26/22 28/8/8
f 25/28/24 12/21/20 31/23/19 33/22/21
f 2/15/15 11/33/18 31/20/19 30/16/16
f 5/10/10 29/13/13 30/16/16 6/11/11
f 3/2/2 27/5/5 28/8/8 4/3/3
usemtl Material.001
f 3/2/2 35/34/26 40/35/27 27/5/5
f 1/32/14 34/36/28 38/37/29 21/1/1
f 7/6/6 37/38/30 39/39/31 23/9/9
f 29/13/13 41/40/32 34/41/28 1/14/14
f 23/9/9 39/39/31 36/42/33 5/10/10
f 27/5/5 40/35/27 37/38/30 7/6/6
f 21/1/1 38/37/29 35/34/26 3/2/2
f 5/10/10 36/42/33 41/40/32 29/13/13
f 41/40/32 42/43/34 34/41/28
f 39/39/31 42/44/34 36/42/33
f 36/42/33 42/45/34 41/40/32
f 35/34/26 42/46/34 40/35/27
f 40/35/27 42/47/34 37/38/30
f 38/37/29 42/48/34 35/34/26
f 37/38/30 42/49/34 39/39/31
f 34/36/28 42/50/34 38/37/29
usemtl Material.002
f 10/27/23 18/51/35 14/52/35 4/3/3
f 9/29/25 17/53/36 16/54/36 8/7/7
f 2/19/15 13/55/37 19/56/37 11/18/18
f 6/11/11 15/57/38 20/58/38 12/21/20
