# Blender v2.82 (sub 7) OBJ File: 'arrow.blend'
# www.blender.org
mtllib arrow.mtl
o Cube_Cube.001
v -0.064036 3.906045 0.064036
v -0.064036 -2.806798 0.064036
v -0.064036 3.906045 -0.064036
v -0.064036 -2.806798 -0.064036
v 0.064036 3.906045 0.064036
v 0.064036 -2.806798 0.064036
v 0.064036 3.906045 -0.064036
v 0.064036 -2.806798 -0.064036
v -0.039126 4.295806 -0.039126
v -0.039126 4.295806 0.039126
v 0.039126 4.295806 -0.039126
v 0.039126 4.295806 0.039126
v 0.000000 4.945974 0.000000
v 0.089498 -3.445698 -0.089498
v -0.089498 -3.445698 -0.089498
v -0.089498 -3.445698 0.089498
v 0.089498 -3.445698 0.089498
v -0.163229 -3.173349 0.163229
v -0.163229 -3.173349 -0.163229
v 0.163229 -3.173349 0.163229
v 0.163229 -3.173349 -0.163229
v 0.163229 -3.712348 -0.163229
v -0.163229 -3.712348 -0.163229
v -0.163229 -3.712348 0.163229
v 0.163229 -3.712348 0.163229
v -0.084191 3.906045 0.000000
v -0.084191 -2.806798 0.000000
v 0.084191 3.906045 0.000000
v 0.084191 -2.806798 0.000000
v -0.153205 4.132216 0.000000
v 0.153205 4.132216 0.000000
v 0.117669 -3.445698 0.000000
v -0.117669 -3.445698 0.000000
v 0.000000 3.906045 -0.076069
v 0.000000 -2.806798 -0.076069
v 0.000000 3.906045 0.076069
v 0.000000 -2.806798 0.076069
v 0.000000 4.132216 -0.138424
v 0.000000 4.132216 0.138424
v 0.000000 -3.445698 0.106316
v 0.000000 -3.445698 -0.106316
v 0.000000 -3.445698 0.000000
vt 0.375000 0.125000
vt 0.625000 0.125000
vt 0.625000 0.250000
vt 0.375000 0.250000
vt 0.375000 0.375000
vt 0.625000 0.375000
vt 0.625000 0.500000
vt 0.375000 0.500000
vt 0.375000 0.625000
vt 0.625000 0.625000
vt 0.625000 0.750000
vt 0.375000 0.750000
vt 0.375000 0.875000
vt 0.625000 0.875000
vt 0.625000 1.000000
vt 0.375000 1.000000
vt 0.375000 0.750000
vt 0.375000 0.625000
vt 0.625000 0.000000
vt 0.625000 0.000000
vt 0.625000 0.125000
vt 0.375000 0.500000
vt 0.375000 0.500000
vt 0.375000 1.000000
vt 0.375000 0.875000
vt 0.375000 0.375000
vt 0.375000 0.250000
vt 0.375000 0.125000
vt 0.625000 0.750000
vt 0.625000 0.875000
vt 0.375000 0.000000
vt 0.375000 0.000000
vt 0.375000 0.750000
vt 0.375000 0.250000
vt 0.750000 0.625000
vt 0.875000 0.625000
vt 0.875000 0.750000
vt 0.750000 0.750000
vt 0.625000 0.250000
vt 0.625000 0.375000
vt 0.625000 0.500000
vt 0.625000 0.625000
vt 0.625000 0.250000
vt 0.625000 0.250000
vt 0.625000 0.500000
vt 0.625000 0.500000
vt 0.625000 0.000000
vt 0.625000 0.000000
vt 0.625000 0.750000
vt 0.625000 0.750000
vt 0.750000 0.500000
vt 0.875000 0.500000
vt 0.375000 0.000000
vt 0.625000 1.000000
vn 0.9539 0.0000 0.3002
vn -0.1847 0.0000 0.9828
vn -0.9539 0.0000 -0.3002
vn 0.1847 0.0000 -0.9828
vn -0.6011 0.0107 -0.7991
vn 0.9527 -0.0499 -0.2999
vn -0.9827 -0.1850 0.0000
vn 0.7413 0.0108 -0.6710
vn -0.7413 0.0108 0.6710
vn 0.6011 0.0107 0.7991
vn -0.1845 -0.0465 -0.9817
vn 0.9827 -0.1850 -0.0000
vn 0.0000 -0.1677 -0.9858
vn 0.0000 -0.1677 0.9858
vn 0.0000 1.0000 0.0000
vn 0.1845 -0.0465 0.9817
vn -0.9527 -0.0499 0.2999
vn -0.7071 0.0000 0.7071
vn -0.7071 0.0000 -0.7071
vn -0.9527 -0.0499 -0.2999
vn 0.6011 0.0107 -0.7991
vn 0.9527 -0.0499 0.2999
vn -0.6011 0.0107 0.7991
vn -0.9539 0.0000 0.3002
vn 0.9539 0.0000 -0.3002
vn -0.1845 -0.0465 0.9817
vn 0.1845 -0.0465 -0.9817
vn 0.7413 0.0108 0.6710
vn -0.7413 0.0108 -0.6710
vn -0.1847 0.0000 -0.9828
vn 0.1847 0.0000 0.9828
usemtl None
s off
f 26/1/1 27/2/1 4/3/1 3/4/1
f 34/5/2 35/6/2 8/7/2 7/8/2
f 28/9/3 29/10/3 6/11/3 5/12/3
f 36/13/4 37/14/4 2/15/4 1/16/4
f 28/9/5 5/12/5 12/17/5 31/18/5
f 27/2/6 2/19/6 16/20/6 33/21/6
f 11/22/7 31/18/7 12/17/7 13/23/7
f 36/13/8 1/16/8 10/24/8 39/25/8
f 34/5/9 7/8/9 11/22/9 38/26/9
f 26/1/10 3/4/10 9/27/10 30/28/10
f 37/14/11 6/11/11 17/29/11 40/30/11
f 10/31/12 30/28/12 9/27/12 13/32/12
f 12/17/13 39/25/13 10/24/13 13/33/13
f 9/27/14 38/26/14 11/22/14 13/34/14
f 42/35/15 33/36/15 16/37/15 40/38/15
f 35/6/16 4/3/16 15/39/16 41/40/16
f 29/10/17 8/7/17 14/41/17 32/42/17
f 15/39/18 4/3/18 19/43/18 23/44/18
f 14/41/19 8/7/19 21/45/19 22/46/19
f 2/19/19 16/20/19 24/47/19 18/48/19
f 6/11/18 17/29/18 25/49/18 20/50/18
f 6/11/20 29/10/20 32/42/20 17/29/20
f 41/51/15 15/52/15 33/36/15 42/35/15
f 1/53/21 26/1/21 30/28/21 10/31/21
f 4/3/22 27/2/22 33/21/22 15/39/22
f 7/8/23 28/9/23 31/18/23 11/22/23
f 7/8/24 8/7/24 29/10/24 28/9/24
f 1/53/25 2/19/25 27/2/25 26/1/25
f 14/41/15 41/51/15 42/35/15 32/42/15
f 8/7/26 35/6/26 41/40/26 14/41/26
f 32/42/15 42/35/15 40/38/15 17/29/15
f 2/15/27 37/14/27 40/30/27 16/54/27
f 3/4/28 34/5/28 38/26/28 9/27/28
f 5/12/29 36/13/29 39/25/29 12/17/29
f 5/12/30 6/11/30 37/14/30 36/13/30
f 3/4/31 4/3/31 35/6/31 34/5/31
